{"title":"Dial M For Murder 3D (2012) QHD Half-SBS for 3DTV - Handheld 3D","uid":7721959,"size":3152105300,"categoryP":"video","categoryS":"3d","magnet":"?xt=urn:btih:1e1a751671ee1aaf3a10048e6b4e1885e4528f56&amp;dn=Dial+M+For+Murder+3D+%282012%29+QHD+Half-SBS+for+3DTV+-+Handheld+3D&amp;tr=udp%3A%2F%2Ftracker.openbittorrent.com%3A80&amp;tr=udp%3A%2F%2Fopen.demonii.com%3A1337&amp;tr=udp%3A%2F%2Ftracker.coppersurfer.tk%3A6969&amp;tr=udp%3A%2F%2Fexodus.desync.com%3A6969","seeders":0,"leechers":1,"uploader":"StoneCold448","files":1,"time":1350095454,"description":"This is Dial M For Murder 3D made specifically for 3DTV's and handheld 3D Devices alike with Auto-3D Enabled \n(no more putting your device into 3D mode, it will read this file like a disc and do it for you)\n \nEncoded by the dedicated group Sick-Flix bringing EVO 3D users more content than amazon\n \nOver 500 Real 3D Titles from all over the Globe\n \nComplete name : J:3D MoviesFinal EditionDial M For Murder 3D (2012) Half-SBS QHD for 3DTV - EVO 3D.mp4\n Format : MPEG-4\n Format profile : Base Media / Version 2\n Codec ID : mp42\n File size : 2.94 GiB\n Duration : 1h 45mn\n Overall bit rate mode : Variable\n Overall bit rate : 3 987 Kbps\n Encoded date : UTC 2012-10-10 01:14:38\n Tagged date : UTC 2012-10-10 02:15:59\n \nVideo\n ID : 1\n Format : AVC\n Format/Info : Advanced Video Codec\n Format profile : &lt;a class=&quot;__cf_email__&quot; href=&quot;/cdn-cgi/l/email-protection&quot; data-cfemail=&quot;f8b0919f90b8b4cbd6c9&quot;&gt;[email&amp;#160;protected]&lt;/a&gt;&lt;script cf-hash='f9e31' type=&quot;text/javascript&quot;&gt;\n/* &lt;![CDATA[ */!function(){try{var t=&quot;currentScript&quot;in document?document.currentScript:function(){for(var t=document.getElementsByTagName(&quot;script&quot;),e=t.length;e--;)if(t[e].getAttribute(&quot;cf-hash&quot;))return t[e]}();if(t&amp;&amp;t.previousSibling){var e,r,n,i,c=t.previousSibling,a=c.getAttribute(&quot;data-cfemail&quot;);if(a){for(e=&quot;&quot;,r=parseInt(a.substr(0,2),16),n=2;a.length-n;n+=2)i=parseInt(a.substr(n,2),16)^r,e+=String.fromCharCode(i);e=document.createTextNode(e),c.parentNode.replaceChild(e,c)}}}catch(u){}}();/* ]]&gt; */&lt;/script&gt;\n Format settings, CABAC : Yes\n Format settings, ReFrames : 6 frames\n Codec ID : avc1\n Codec ID/Info : Advanced Video Coding\n Duration : 1h 45mn\n Bit rate mode : Variable\n Bit rate : 3 833 Kbps\n Display aspect ratio : 16:9\n Frame rate mode : Variable\n Frame rate : 23.976 fps\n Minimum frame rate : 11.987 fps\n Maximum frame rate : 23.981 fps\n Color space : YUV\n Chroma subsampling : 4:2:0\n Bit depth : 8 bits\n Scan type : Progressive\n Bits/(Pixel*Frame) : 0.308\n Stream size : 2.82 GiB (96%)\nWriting library : x264 core 122\n Encoding settings : cabac=1 / ref=6 / deblock=1:0:0 / analyse=0x3:0x113 / me=umh / subme=7 / psy=1 / psy_rd=1.00:0.00 / mixed_ref=0 / me_range=42 / chroma_me=1 / trellis=1 / 8x8dct=1 / cqm=0 / deadzone=21,11 / fast_pskip=1 / chroma_qp_offset=-2 / threads=6 / sliced_threads=0 / nr=0 / decimate=1 / interlaced=0 / bluray_compat=0 / constrained_intra=0 / bframes=6 / b_pyramid=2 / b_adapt=2 / b_bias=0 / direct=3 / weightb=0 / open_gop=0 / weightp=2 / keyint=240 / keyint_min=24 / scenecut=40 / intra_refresh=0 / rc_lookahead=40 / rc=crf / mbtree=1 / crf=15.4 / qcomp=0.60 / qpmin=3 / qpmax=69 / qpstep=4 / frame-packing=3 / ip_ratio=1.40 / aq=1:1.00\n Encoded date : UTC 2012-10-10 01:14:38\n Tagged date : UTC 2012-10-10 02:15:59\n Color primaries : BT.709-5, BT.1361, IEC 61966-2-4, SMPTE RP177\n Transfer characteristics : BT.709-5, BT.1361\n Matrix coefficients : BT.709-5, BT.1361, IEC 61966-2-4 709, SMPTE RP177\n \nAudio = English\n ID : 2\n Format : AAC\n Format/Info : Advanced Audio Codec\n Format profile : LC\n Codec ID : 40\n Duration : 1h 45mn\n Bit rate mode : Variable\n Bit rate : 320 Kbps\n Maximum bit rate : 331 Kbps\n Channel(s) : 2 channel\n Channel positions : Front: L+R\n Sampling rate : 48.0 KHz\n Compression mode : Lossy\n Stream size : 164 MiB (6%)\n Encoded date : UTC 2012-10-10 01:14:38\n Tagged date : UTC 2012-10-10 02:15:58\n \n\nSeedbox Supported, for any questions please just google Sick-Flix","torrent":{"xt":"urn:btih:1e1a751671ee1aaf3a10048e6b4e1885e4528f56","amp;dn":"Dial+M+For+Murder+3D+%282012%29+QHD+Half-SBS+for+3DTV+-+Handheld+3D","amp;tr":["udp%3A%2F%2Ftracker.openbittorrent.com%3A80","udp%3A%2F%2Fopen.demonii.com%3A1337","udp%3A%2F%2Ftracker.coppersurfer.tk%3A6969","udp%3A%2F%2Fexodus.desync.com%3A6969"],"infoHash":"1e1a751671ee1aaf3a10048e6b4e1885e4528f56","infoHashBuffer":{"type":"Buffer","data":[30,26,117,22,113,238,26,175,58,16,4,142,107,78,24,133,228,82,143,86]},"announce":[],"urlList":[]}}